<svg width="43" height="43" viewBox="0 0 43 43" fill="none" xmlns="http://www.w3.org/2000/svg">
<g clip-path="url(#clip0_74_451)">
<path d="M33.1589 11.7852C33.1285 11.756 33.0969 11.7332 33.0652 11.7121C33.056 11.7028 33.0483 11.6924 33.0382 11.6839L32.5553 11.2787C32.4686 11.2059 32.3659 11.1636 32.2597 11.1455C32.1041 11.0981 31.9274 11.1082 31.7518 11.2092C31.1542 11.5523 30.4916 11.7147 29.847 11.4093C29.189 11.0978 29.185 10.2587 29.2988 9.6406C29.454 9.40244 29.464 9.08059 29.1737 8.85301C27.9653 7.90654 26.0096 6.38326 24.7739 5.47294C24.6355 5.0401 24.0535 4.76316 23.7119 5.22876C23.5786 5.32015 23.4772 5.45409 23.4323 5.60167C18.2314 12.6144 11.006 19.666 5.38533 26.3331C5.24916 26.4944 5.21507 26.6684 5.24612 26.827C5.26061 26.9661 5.32481 27.1048 5.46303 27.2212C6.60205 28.1825 8.43321 29.7858 9.50661 30.8199C9.59738 30.9073 9.69323 30.9544 9.78854 30.9756C9.90923 31.0255 10.0497 31.0405 10.2046 30.9981C11.8931 30.5402 13.3587 31.5083 12.9924 33.3374C12.9894 33.3509 12.9901 33.3632 12.9884 33.3766C12.8988 33.5955 12.9311 33.8529 13.1815 34.0405C14.6251 35.1241 16.2588 36.4769 17.7029 37.56C17.795 37.6293 17.8903 37.6662 17.9843 37.6824C18.2187 37.8132 18.5222 37.8099 18.7454 37.5436C24.5491 30.6174 30.9574 22.5557 36.7375 15.611C36.781 15.5587 36.8111 15.5048 36.8347 15.4507C37.0287 15.2104 37.0582 14.8655 36.7273 14.6425C35.5454 13.8455 34.1893 12.7715 33.1589 11.7852ZM18.1353 36.3055C16.919 35.3789 15.4898 34.2139 14.2722 33.2894C14.615 30.7858 12.5072 29.3077 10.1801 29.7244C9.30261 28.884 7.67458 27.4653 6.75314 26.6732C12.2159 20.261 19.1822 13.3895 24.2299 6.63615C25.2639 7.40015 27.0178 8.77703 28.033 9.56577C27.869 10.6296 28.115 11.7215 29.0397 12.3834C29.9454 13.0312 31.0624 12.9038 32.0192 12.4747L32.2276 12.6495C32.2528 12.6707 32.2807 12.6877 32.3084 12.7041C32.322 12.72 32.333 12.736 32.3483 12.7509C33.2269 13.5918 34.4116 14.5484 35.4018 15.2472C29.871 21.9067 23.6878 29.6632 18.1353 36.3055Z" fill="black"/>
<path d="M30.8901 14.4073C30.7375 14.2611 30.5704 14.2198 30.4166 14.2461C30.3574 14.2443 30.2965 14.2475 30.2323 14.2627C28.4475 14.6888 27.2314 13.4395 27.2226 11.7079C27.2224 11.6832 27.2176 11.6623 27.2153 11.6395C27.2148 11.6255 27.2123 11.6117 27.2111 11.5975C27.209 11.5853 27.2084 11.5719 27.2058 11.5596C27.1837 11.4174 27.1176 11.2856 26.9933 11.2058C26.3267 10.7782 24.9621 9.70671 24.3231 9.23957C24.2819 9.20957 24.24 9.18514 24.198 9.16597C23.957 8.96006 23.5947 8.91857 23.3544 9.24963C19.4025 14.7005 13.5465 20.2845 9.22214 25.4381C8.92735 25.7894 9.10631 26.2003 9.41208 26.3802C9.44603 26.4319 9.48622 26.4826 9.54129 26.5288C10.0382 26.9457 11.2574 27.972 11.7208 28.4263C11.7423 28.4472 11.7647 28.4623 11.7867 28.4792C11.8693 28.5706 11.9852 28.6393 12.1405 28.6664C13.6939 28.9345 14.6671 30.0463 14.9431 31.5749C14.9448 31.5853 14.9491 31.5936 14.9513 31.6035C14.9447 31.7683 15.007 31.9383 15.1722 32.077C15.9105 32.6965 16.8875 33.5207 17.5932 34.1771C17.6488 34.229 17.7065 34.2638 17.7646 34.2908C18.0056 34.477 18.3572 34.5096 18.602 34.2007C22.9993 28.6575 28.5761 22.4515 32.8927 16.8426C32.9939 16.711 33.0317 16.5727 33.0271 16.4406C33.0767 16.1862 32.993 15.9038 32.6994 15.7499C32.1199 15.4456 31.3625 14.8599 30.8901 14.4073ZM18.0413 32.8869C17.5024 32.4005 16.7108 31.7243 16.1548 31.2569C15.7415 29.3303 14.4982 27.8724 12.5316 27.4609C12.5314 27.4607 12.5312 27.4605 12.5309 27.4603C12.1438 27.0809 11.0102 26.1188 10.5961 25.7694C14.6999 20.9571 20.1963 15.6101 23.9679 10.5331C24.3914 10.8379 25.5417 11.7468 25.9777 12.0331C26.0989 14.3915 27.9817 15.8588 30.2482 15.5261C30.5763 15.8207 31.1695 16.288 31.5401 16.5242C27.4586 21.7773 22.1958 27.6925 18.0413 32.8869Z" fill="black"/>
<path d="M19.109 19.5393L23.4551 23.1861C24.0777 23.7086 24.8881 22.7428 24.2654 22.2203L19.9194 18.5736C19.2967 18.0511 18.4863 19.0168 19.109 19.5393Z" fill="black"/>
</g>
<defs>
<clipPath id="clip0_74_451">
<rect width="30" height="30" fill="white" transform="translate(0 22.9813) rotate(-50)"/>
</clipPath>
</defs>
</svg>
